<svg id="Layer_1" data-name="Layer 1" xmlns="http://www.w3.org/2000/svg" xmlns:xlink="http://www.w3.org/1999/xlink" viewBox="0 0 422.62 100.77"><defs><style>.cls-1{fill:none;}.cls-2,.cls-4{fill:#fff;}.cls-3{clip-path:url(#clip-path);}.cls-4{font-size:11.59px;font-family:MyriadPro-Regular, Myriad Pro;}</style><clipPath id="clip-path" transform="translate(-210.12 -221.24)"><rect class="cls-1" x="210.12" y="237.12" width="299.76" height="60.68"/></clipPath></defs><title>DigitalGarage_logo-wht</title><rect class="cls-2" x="96.5" y="33.17" width="1.56" height="21.9"/><g class="cls-3"><path class="cls-2" d="M328.91,272.38c0,2-1.53,3.31-3.46,3.87a13.1,13.1,0,0,1-6.13,0c-2-.53-3.62-1.81-3.65-3.9v-14c0-2.28,1.93-3.62,4.21-4.06a13.26,13.26,0,0,1,5.85.28c1.84.59,3.18,1.88,3.18,3.81l-1.56,0c0-1.12-.9-1.9-2.09-2.31a11.21,11.21,0,0,0-5.09-.22c-1.6.31-2.94,1.16-2.94,2.56v14c0,1.25,1.09,2.06,2.5,2.41a11.62,11.62,0,0,0,5.28,0c1.34-.37,2.34-1.15,2.34-2.37v-5.44H323v-1.43h5.87Z" transform="translate(-210.12 -221.24)"/></g><rect class="cls-2" x="126.28" y="33.17" width="1.56" height="21.9"/><polygon class="cls-2" points="133.65 33.2 147.12 33.2 147.12 34.58 141.18 34.58 141.12 55.07 139.53 55.07 139.59 34.58 133.65 34.58 133.65 33.2"/><g class="cls-3"><path class="cls-2" d="M363.51,258.44v7.75h10.12v-7.75a2.27,2.27,0,0,0-1.21-1.9c-1.79-1.1-6-1.06-7.72,0a2.23,2.23,0,0,0-1.19,1.9m11.65,0h0v17.88h-1.56v-8.57H363.51v8.57H362V258.44a3.65,3.65,0,0,1,1.94-3.21c2.28-1.38,7.09-1.38,9.34,0a3.67,3.67,0,0,1,1.93,3.21" transform="translate(-210.12 -221.24)"/><path class="cls-2" d="M393.76,274.72v1.6h-4.53c-3,0-5.94-1.22-5.94-4.69V254.45h1.59v17.18c0,2.34,2.44,3.09,4.35,3.09Z" transform="translate(-210.12 -221.24)"/><path class="cls-2" d="M414.81,272c0,2-1.53,3.31-3.47,3.87a13.05,13.05,0,0,1-6.12,0c-2-.53-3.63-1.81-3.66-3.9V258c0-2.28,1.94-3.62,4.22-4.06a13.2,13.2,0,0,1,5.84.28c1.85.59,3.19,1.87,3.19,3.81l-1.56,0c0-1.13-.91-1.91-2.1-2.31a11.21,11.21,0,0,0-5.09-.22c-1.59.31-2.94,1.16-2.94,2.56v14c0,1.25,1.1,2.06,2.5,2.4a11.48,11.48,0,0,0,5.28,0c1.35-.37,2.35-1.15,2.35-2.37v-5.44h-4.32v-1.44h5.88Z" transform="translate(-210.12 -221.24)"/><path class="cls-2" d="M421.86,258.07v7.75H432v-7.75a2.26,2.26,0,0,0-1.22-1.9c-1.78-1.1-6-1.06-7.72,0a2.24,2.24,0,0,0-1.18,1.9m11.65,0h0V276H432v-8.57H421.86V276H420.3V258.07a3.69,3.69,0,0,1,1.93-3.22c2.28-1.37,7.09-1.37,9.34,0a3.68,3.68,0,0,1,1.94,3.22" transform="translate(-210.12 -221.24)"/><path class="cls-2" d="M451,258.26c0-2-2.65-2.81-4.25-2.81h-4.34v10.72h4.22c1.69,0,4.37-.53,4.37-2.69Zm-8.59,9.31V276h-1.53V254.07h5.87c.75,0,5.82.07,5.82,4.19v5.22a3.64,3.64,0,0,1-3,3.47,3.59,3.59,0,0,1,3,3.4V276H451v-5.6c0-2.12-2.78-2.78-4.37-2.78Z" transform="translate(-210.12 -221.24)"/><path class="cls-2" d="M460.92,258.07v7.75H471v-7.75a2.26,2.26,0,0,0-1.22-1.9c-1.78-1.1-6-1.06-7.72,0a2.24,2.24,0,0,0-1.18,1.9m11.65,0h0V276H471v-8.57H460.92V276h-1.57V258.07a3.7,3.7,0,0,1,1.94-3.22c2.28-1.37,7.09-1.37,9.34,0a3.68,3.68,0,0,1,1.94,3.22" transform="translate(-210.12 -221.24)"/><path class="cls-2" d="M491.55,272c0,2-1.53,3.31-3.46,3.87a13.1,13.1,0,0,1-6.13,0c-2-.53-3.62-1.81-3.65-3.9V258c0-2.28,1.93-3.62,4.22-4.06a13.22,13.22,0,0,1,5.84.28c1.84.59,3.18,1.87,3.18,3.81L490,258c0-1.13-.9-1.91-2.09-2.31a11.21,11.21,0,0,0-5.09-.22c-1.6.31-2.94,1.16-2.94,2.56v14c0,1.25,1.09,2.06,2.5,2.4a11.48,11.48,0,0,0,5.28,0C489,274,490,273.23,490,272v-5.44h-4.31v-1.44h5.87Z" transform="translate(-210.12 -221.24)"/><path class="cls-2" d="M499.4,264.2h10.06v1.59H499.4a63.6,63.6,0,0,0,.13,6.59c.5,1.47,2.68,2,4.15,2h5.78V276h-5.78v0c-2.65,0-5.84-1.21-5.84-4.18V254h11.62v1.57H499.4Z" transform="translate(-210.12 -221.24)"/></g><polygon class="cls-2" points="0 15.88 0 20.54 5.85 20.54 5.85 71.89 0 71.89 0 76.55 12.32 76.55 12.32 15.88 0 15.88"/><polygon class="cls-2" points="62.49 15.88 62.49 76.55 75.03 76.55 75.03 71.89 68.97 71.89 68.97 20.54 75.03 20.54 75.03 15.88 62.49 15.88"/><g class="cls-3"><path class="cls-2" d="M299.1,258.63c0-1.87-2.5-2.65-4.12-2.65h-6v18.74h5.78c1.47,0,3.69-.5,4.19-2,.22-.62.12-11.43.12-14.09m-11.68,17.69V254.41H295c2.53,0,5.69,1.29,5.69,4.22v13.44c0,3-3.22,4.25-5.91,4.25Z" transform="translate(-210.12 -221.24)"/></g><path class="cls-2" d="M455.7,290.72a1.84,1.84,0,0,1-1.53,1.72,5.77,5.77,0,0,1-2.71,0,1.88,1.88,0,0,1-1.61-1.73v-6.2c0-1,.86-1.6,1.86-1.79a5.8,5.8,0,0,1,2.59.12,1.78,1.78,0,0,1,1.4,1.69l-.69,0a1.17,1.17,0,0,0-.92-1,5,5,0,0,0-2.25-.1c-.71.14-1.3.52-1.3,1.14v6.18c0,.56.48.91,1.1,1.07a5.14,5.14,0,0,0,2.34,0c.59-.16,1-.51,1-1v-2.4h-1.9v-.64h2.59Z" transform="translate(-210.12 -221.24)"/><path class="cls-2" d="M457.14,284.54c0-2.48,5.83-2.48,5.83,0v6.16c0,2.51-5.83,2.51-5.83,0Zm5.13,6.09v-6.09c0-1.63-4.45-1.63-4.45,0l0,6.09a1,1,0,0,0,0,.36c.41,1.2,3.92,1.2,4.34,0A1.25,1.25,0,0,0,462.27,290.63Z" transform="translate(-210.12 -221.24)"/><path class="cls-2" d="M467,293l3.85-10h.94l-3.87,10Z" transform="translate(-210.12 -221.24)"/><path class="cls-2" d="M481.55,290.64a1.84,1.84,0,0,1-1.53,1.73,6.35,6.35,0,0,1-2.71,0,1.88,1.88,0,0,1-1.61-1.73v-6.06c0-1,.85-1.6,1.86-1.79a5.89,5.89,0,0,1,2.58.11,1.79,1.79,0,0,1,1.41,1.68h-.69c0-.51-.4-.85-.92-1a5.18,5.18,0,0,0-2.25-.09c-.71.14-1.3.51-1.3,1.12v6.06c0,.54.48.9,1.1,1.07a5.43,5.43,0,0,0,2.34,0c.59-.16,1-.52,1-1.05Z" transform="translate(-210.12 -221.24)"/><path class="cls-2" d="M482.84,284.54c0-2.48,5.83-2.48,5.83,0v6.16c0,2.51-5.83,2.51-5.83,0Zm5.12,6.09,0-6.09c0-1.63-4.45-1.63-4.45,0v6.09a.91.91,0,0,0,0,.36c.41,1.2,3.92,1.2,4.33,0A1,1,0,0,0,488,290.63Z" transform="translate(-210.12 -221.24)"/><path class="cls-2" d="M490.08,292.46v-9.68h3.35c1.12,0,2.52.57,2.52,1.87v5.94c0,1.32-1.43,1.87-2.61,1.87Zm5.16-7.81c0-.83-1.1-1.18-1.82-1.18h-2.64v8.29h2.56c.65,0,1.63-.22,1.85-.88C495.28,290.6,495.24,285.82,495.24,284.65Z" transform="translate(-210.12 -221.24)"/><path class="cls-2" d="M498.08,287.27h4.44v.7h-4.44c0,.45,0,2.64.05,2.92.22.65,1.19.87,1.84.87h2.55v.7H500c-1.17,0-2.58-.54-2.58-1.85v-7.82h5.13v.69h-4.44Z" transform="translate(-210.12 -221.24)"/><g class="cls-3"><text class="cls-4" transform="translate(297.98 69.18)">|</text></g><rect class="cls-2" x="16.24" y="21.55" width="42.34" height="5.76"/><g class="cls-3"><path class="cls-2" d="M268,237.12H227.06a.7.7,0,0,0-.7.7V240H268.7v-2.18a.7.7,0,0,0-.7-.7" transform="translate(-210.12 -221.24)"/></g><rect class="cls-2" x="16.24" y="30.07" width="42.34" height="5.76"/><rect class="cls-2" x="16.24" y="39.09" width="42.34" height="5.76"/><rect class="cls-2" x="16.24" y="48.68" width="42.34" height="5.76"/><text x="-210.12" y="-221.24"></text></svg>