<svg id="Layer_1" data-name="Layer 1" xmlns="http://www.w3.org/2000/svg" xmlns:xlink="http://www.w3.org/1999/xlink" viewBox="0 0 300.75 60.68"><defs><style>.cls-1,.cls-3,.cls-4{fill:#fff;}.cls-2{clip-path:url(#clip-path);}.cls-3{font-size:13.82px;font-family:Dekar, Dekar;}.cls-4{font-size:11.59px;font-family:MyriadPro-Regular, Myriad Pro;}</style><clipPath id="clip-path"><rect class="cls-1" width="299.76" height="60.68"/></clipPath></defs><title>dg-logo-white</title><rect class="cls-1" x="96.5" y="17.29" width="1.56" height="21.9"/><rect class="cls-1" width="299.76" height="60.68"/><g class="cls-2"><path class="cls-1" d="M118.79,35.26c0,2-1.53,3.31-3.47,3.87a13.05,13.05,0,0,1-6.12,0c-2-.53-3.62-1.81-3.65-3.9v-14c0-2.28,1.93-3.62,4.21-4.06a13.26,13.26,0,0,1,5.85.28c1.84.6,3.18,1.88,3.18,3.81l-1.56,0c0-1.12-.91-1.9-2.09-2.31a11.26,11.26,0,0,0-5.1-.22c-1.59.31-2.93,1.16-2.93,2.56v14c0,1.25,1.09,2.06,2.5,2.41a11.76,11.76,0,0,0,5.28,0c1.34-.38,2.34-1.16,2.34-2.38V29.82h-4.31V28.39h5.87Z"/></g><rect class="cls-1" x="126.28" y="17.29" width="1.56" height="21.9"/><polygon class="cls-1" points="133.65 17.33 147.12 17.33 147.12 18.7 141.18 18.7 141.12 39.2 139.53 39.2 139.59 18.7 133.65 18.7 133.65 17.33"/><rect class="cls-1" width="299.76" height="60.68"/><g class="cls-2"><path class="cls-1" d="M153.39,21.33v7.74h10.12V21.33a2.26,2.26,0,0,0-1.22-1.91c-1.78-1.09-6-1.06-7.71,0a2.23,2.23,0,0,0-1.19,1.91m11.65,0h0V39.2h-1.56V30.64H153.39V39.2h-1.56V21.33a3.67,3.67,0,0,1,1.93-3.22c2.28-1.38,7.1-1.38,9.35,0A3.67,3.67,0,0,1,165,21.33"/><path class="cls-1" d="M183.63,37.6v1.6H179.1c-3,0-5.93-1.22-5.93-4.69V17.33h1.59V34.51c0,2.34,2.44,3.09,4.34,3.09Z"/><path class="cls-1" d="M204.69,34.89c0,2-1.53,3.31-3.47,3.87a13.1,13.1,0,0,1-6.13,0c-2-.53-3.62-1.81-3.65-3.9v-14c0-2.28,1.94-3.62,4.22-4.06a13.2,13.2,0,0,1,5.84.28c1.84.59,3.19,1.88,3.19,3.81l-1.56,0c0-1.12-.91-1.9-2.1-2.31a11.21,11.21,0,0,0-5.09-.22c-1.59.31-2.94,1.16-2.94,2.56v14c0,1.25,1.1,2.06,2.5,2.41a11.62,11.62,0,0,0,5.28,0c1.35-.37,2.35-1.15,2.35-2.37V29.45h-4.32V28h5.88Z"/><path class="cls-1" d="M211.74,21V28.7h10.12V21a2.26,2.26,0,0,0-1.22-1.9c-1.78-1.09-6-1.06-7.72,0a2.22,2.22,0,0,0-1.18,1.9m11.65,0h0V38.83h-1.56V30.27H211.74v8.56h-1.57V21a3.67,3.67,0,0,1,1.94-3.21c2.28-1.38,7.09-1.38,9.34,0A3.65,3.65,0,0,1,223.39,21"/><path class="cls-1" d="M240.84,21.14c0-2-2.65-2.81-4.25-2.81h-4.34V29.05h4.22c1.69,0,4.37-.53,4.37-2.69Zm-8.59,9.31v8.38h-1.53V17h5.87c.75,0,5.81.06,5.81,4.18v5.22a3.63,3.63,0,0,1-3,3.47,3.58,3.58,0,0,1,3,3.4v5.6h-1.56v-5.6c0-2.12-2.78-2.78-4.37-2.78Z"/><path class="cls-1" d="M250.8,21V28.7h10.12V21a2.26,2.26,0,0,0-1.22-1.9c-1.78-1.09-6-1.06-7.72,0A2.22,2.22,0,0,0,250.8,21m11.65,0h0V38.83h-1.56V30.27H250.8v8.56h-1.57V21a3.67,3.67,0,0,1,1.94-3.21c2.28-1.38,7.09-1.38,9.34,0A3.65,3.65,0,0,1,262.45,21"/><path class="cls-1" d="M281.43,34.89c0,2-1.53,3.31-3.46,3.87a13.1,13.1,0,0,1-6.13,0c-2-.53-3.62-1.81-3.65-3.9v-14c0-2.28,1.93-3.62,4.21-4.06a13.26,13.26,0,0,1,5.85.28c1.84.59,3.18,1.88,3.18,3.81l-1.56,0c0-1.12-.9-1.9-2.09-2.31a11.25,11.25,0,0,0-5.1-.22c-1.59.31-2.93,1.16-2.93,2.56v14c0,1.25,1.09,2.06,2.5,2.41a11.62,11.62,0,0,0,5.28,0c1.34-.37,2.34-1.15,2.34-2.37V29.45h-4.31V28h5.87Z"/><path class="cls-1" d="M289.28,27.08h10.06v1.59H289.28c0,1-.09,6,.12,6.59.5,1.47,2.69,2,4.16,2h5.78v1.6h-5.78v0c-2.66,0-5.84-1.21-5.84-4.18V16.92h11.62v1.57H289.28Z"/></g><polygon class="cls-1" points="0 0 0 4.66 5.85 4.66 5.85 56.02 0 56.02 0 60.68 12.32 60.68 12.32 0 0 0"/><polygon class="cls-1" points="62.49 0 62.49 60.68 75.03 60.68 75.03 56.02 68.97 56.02 68.97 4.66 75.03 4.66 75.03 0 62.49 0"/><rect class="cls-1" width="299.76" height="60.68"/><g class="cls-2"><path class="cls-1" d="M89,21.51c0-1.87-2.5-2.65-4.12-2.65h-6V37.6h5.78c1.47,0,3.69-.5,4.19-2,.21-.62.12-11.43.12-14.09M77.3,39.2V17.29h7.59c2.53,0,5.68,1.29,5.68,4.22V35c0,3-3.21,4.25-5.9,4.25Z"/></g><path class="cls-1" d="M245.58,53.6a1.84,1.84,0,0,1-1.53,1.72,5.77,5.77,0,0,1-2.71,0,1.87,1.87,0,0,1-1.61-1.73V47.4c0-1,.85-1.6,1.86-1.79a5.75,5.75,0,0,1,2.58.12,1.79,1.79,0,0,1,1.41,1.69l-.69,0a1.17,1.17,0,0,0-.92-1,4.89,4.89,0,0,0-2.25-.09c-.71.13-1.3.51-1.3,1.13V53.6c0,.56.48.92,1.1,1.07a5.14,5.14,0,0,0,2.34,0c.59-.16,1-.51,1-1V51.2H243v-.63h2.59Z"/><path class="cls-1" d="M247,47.42c0-2.47,5.83-2.47,5.83,0v6.16c0,2.51-5.83,2.51-5.83,0Zm5.12,6.09,0-6.09c0-1.63-4.45-1.63-4.45,0l0,6.09a1,1,0,0,0,0,.36c.41,1.2,3.92,1.2,4.33,0A1,1,0,0,0,252.14,53.51Z"/><path class="cls-1" d="M256.85,55.9l3.85-10h.94l-3.87,10Z"/><path class="cls-1" d="M271.43,53.52a1.84,1.84,0,0,1-1.53,1.73,6.35,6.35,0,0,1-2.71,0,1.87,1.87,0,0,1-1.61-1.72V47.47c0-1,.85-1.6,1.86-1.79a5.9,5.9,0,0,1,2.58.11,1.79,1.79,0,0,1,1.41,1.68h-.69c0-.51-.4-.85-.92-1a5.21,5.21,0,0,0-2.26-.09c-.7.14-1.29.52-1.29,1.12v6.07c0,.53.48.89,1.1,1.06a5.43,5.43,0,0,0,2.34,0c.59-.16,1-.52,1-1Z"/><path class="cls-1" d="M272.72,47.42c0-2.47,5.83-2.47,5.83,0v6.16c0,2.51-5.83,2.51-5.83,0Zm5.12,6.09V47.42c0-1.63-4.44-1.63-4.44,0v6.09a1.25,1.25,0,0,0,0,.36c.42,1.2,3.93,1.2,4.34,0A1,1,0,0,0,277.84,53.51Z"/><path class="cls-1" d="M280,55.34V45.66h3.35c1.12,0,2.52.57,2.52,1.87v5.94c0,1.32-1.43,1.87-2.61,1.87Zm5.16-7.81c0-.83-1.1-1.18-1.82-1.18h-2.64v8.29h2.56c.65,0,1.63-.22,1.85-.88C285.16,53.48,285.12,48.7,285.12,47.53Z"/><path class="cls-1" d="M288,50.15h4.44v.71H288c0,.44,0,2.63.05,2.91.22.65,1.19.87,1.84.87h2.55v.7h-2.55c-1.18,0-2.58-.54-2.58-1.85V45.66h5.13v.69H288Z"/><text class="cls-3" transform="translate(293.1 55.34)"> </text><rect class="cls-1" width="299.76" height="60.68"/><g class="cls-2"><text class="cls-4" transform="translate(297.98 53.3)">|</text></g><rect class="cls-1" x="16.24" y="5.67" width="42.34" height="5.76"/><rect class="cls-1" width="299.76" height="60.68"/><g class="cls-2"><path class="cls-1" d="M57.88,0H16.94a.7.7,0,0,0-.7.7V2.88H58.58V.7a.7.7,0,0,0-.7-.7"/></g><rect class="cls-1" x="16.24" y="14.19" width="42.34" height="5.76"/><rect class="cls-1" x="16.24" y="23.21" width="42.34" height="5.76"/><rect class="cls-1" x="16.24" y="32.81" width="42.34" height="5.76"/></svg>