<?xml version="1.0" encoding="UTF-8" standalone="no"?>
<svg
   xmlns:dc="http://purl.org/dc/elements/1.1/"
   xmlns:cc="http://creativecommons.org/ns#"
   xmlns:rdf="http://www.w3.org/1999/02/22-rdf-syntax-ns#"
   xmlns:svg="http://www.w3.org/2000/svg"
   xmlns="http://www.w3.org/2000/svg"
   viewBox="0 0 399.67999 80.90667"
   height="80.90667"
   width="399.67999"
   xml:space="preserve"
   id="svg2"
   version="1.1"><metadata
     id="metadata8"><rdf:RDF><cc:Work
         rdf:about=""><dc:format>image/svg+xml</dc:format><dc:type
           rdf:resource="http://purl.org/dc/dcmitype/StillImage" /></cc:Work></rdf:RDF></metadata><defs
     id="defs6" /><g
     transform="matrix(1.3333333,0,0,-1.3333333,0,80.906667)"
     id="g10"><g
       transform="scale(0.1)"
       id="g12"><path
         id="path14"
         style="fill:#ffffff;fill-opacity:1;fill-rule:nonzero;stroke:none"
         d="m 980.602,214.809 h -15.618 v 219.023 h 15.618 V 214.809" /><path
         id="path16"
         style="fill:#ffffff;fill-opacity:1;fill-rule:nonzero;stroke:none"
         d="m 1187.93,254.18 c 0,-20.317 -15.31,-33.129 -34.69,-38.75 -17.17,-5 -44.05,-5 -61.24,-0.305 -20.3,5.313 -36.23,18.105 -36.55,39.055 v 139.968 0.313 c 0.32,22.812 19.38,36.242 42.18,40.621 17.19,3.121 42.18,2.809 58.44,-2.824 18.42,-5.934 31.86,-18.742 31.86,-38.11 l -15.62,0.313 c 0,11.254 -9.06,19.055 -20.94,23.113 -14.36,5.012 -35.93,5.012 -50.93,2.188 -15.92,-3.121 -29.37,-11.559 -29.37,-25.614 V 254.18 c 0,-12.508 10.95,-20.629 25.01,-24.067 14.68,-4.058 38.42,-3.75 52.79,0.313 13.44,3.754 23.44,11.562 23.44,23.754 v 54.355 h -43.12 v 14.375 h 58.74 v -68.73" /><path
         id="path18"
         style="fill:#ffffff;fill-opacity:1;fill-rule:nonzero;stroke:none"
         d="m 1278.39,214.809 h -15.61 v 219.023 h 15.61 V 214.809" /><path
         id="path20"
         style="fill:#ffffff;fill-opacity:1;fill-rule:nonzero;stroke:none"
         d="m 1336.54,433.512 h 134.67 v -13.75 h -59.37 l -0.62,-204.953 h -15.94 l 0.63,204.953 h -59.37 v 13.75" /><path
         id="path22"
         style="fill:#ffffff;fill-opacity:1;fill-rule:nonzero;stroke:none"
         d="m 1650.43,393.52 h 0.3 V 214.809 h -15.61 v 85.609 h -101.24 v -85.609 h -15.62 V 393.52 c 0,14.382 7.82,25.308 19.38,32.191 22.8,13.746 70.91,13.746 93.42,0 11.55,-6.883 19.37,-17.809 19.37,-32.191 m -116.55,0 v -77.485 h 101.24 v 77.485 c 0,8.121 -5.01,14.683 -12.18,19.062 -17.82,10.938 -59.69,10.617 -77.18,0 -7.19,-4.379 -11.88,-10.941 -11.88,-19.062" /><path
         id="path24"
         style="fill:#ffffff;fill-opacity:1;fill-rule:nonzero;stroke:none"
         d="m 1836.34,230.742 v -15.937 h -45.3 c -30,0 -59.37,12.179 -59.37,46.863 v 171.844 h 15.94 V 261.668 c 0,-23.43 24.37,-30.926 43.43,-30.926 h 45.3" /><path
         id="path26"
         style="fill:#ffffff;fill-opacity:1;fill-rule:nonzero;stroke:none"
         d="m 2046.87,257.883 c 0,-20.317 -15.3,-33.125 -34.68,-38.746 -17.17,-5.004 -44.05,-5.004 -61.24,-0.305 -20.3,5.313 -36.24,18.106 -36.55,39.051 v 139.972 0.309 c 0.31,22.813 19.38,36.246 42.18,40.625 17.19,3.117 42.18,2.809 58.43,-2.824 18.43,-5.934 31.86,-18.742 31.86,-38.11 l -15.62,0.309 c 0,11.258 -9.06,19.059 -20.93,23.117 -14.37,5.008 -35.93,5.008 -50.93,2.184 -15.92,-3.117 -29.37,-11.559 -29.37,-25.61 V 257.883 c 0,-12.504 10.94,-20.625 25,-24.063 14.69,-4.062 38.43,-3.75 52.8,0.309 13.44,3.758 23.43,11.566 23.43,23.754 v 54.359 h -43.12 v 14.375 h 58.74 v -68.734" /><path
         id="path28"
         style="fill:#ffffff;fill-opacity:1;fill-rule:nonzero;stroke:none"
         d="m 2233.91,397.227 h 0.3 V 218.516 h -15.62 v 85.609 h -101.23 v -85.609 h -15.62 v 178.711 c 0,14.378 7.81,25.308 19.37,32.191 22.81,13.742 70.92,13.742 93.42,0 11.56,-6.883 19.38,-17.813 19.38,-32.191 m -116.55,0 v -77.485 h 101.23 v 77.485 c 0,8.117 -5,14.683 -12.18,19.062 -17.81,10.938 -59.68,10.617 -77.18,0 -7.18,-4.379 -11.87,-10.945 -11.87,-19.062" /><path
         id="path30"
         style="fill:#ffffff;fill-opacity:1;fill-rule:nonzero;stroke:none"
         d="m 2322.5,302.238 v -83.726 h -15.31 v 218.707 h 58.74 c 7.49,0 58.11,-0.625 58.11,-41.864 v -52.171 c 0,-16.871 -12.82,-31.254 -29.69,-34.7 16.26,-3.738 29.69,-16.55 29.69,-34.043 v -55.929 h -15.62 v 55.929 c 0,21.25 -27.82,27.797 -43.74,27.797 z m 85.92,93.117 c 0,19.997 -26.57,28.11 -42.49,28.11 H 2322.5 V 316.301 h 42.18 c 16.87,0 43.74,5.312 43.74,26.883 v 52.171" /><path
         id="path32"
         style="fill:#ffffff;fill-opacity:1;fill-rule:nonzero;stroke:none"
         d="m 2624.5,397.227 h 0.31 V 218.516 h -15.62 v 85.609 h -101.24 v -85.609 h -15.62 v 178.711 c 0,14.378 7.82,25.308 19.38,32.191 22.8,13.742 70.92,13.742 93.42,0 11.56,-6.883 19.37,-17.813 19.37,-32.191 m -116.55,0 v -77.485 h 101.24 v 77.485 c 0,8.117 -5,14.683 -12.18,19.062 -17.81,10.938 -59.69,10.617 -77.18,0 -7.19,-4.379 -11.88,-10.945 -11.88,-19.062" /><path
         id="path34"
         style="fill:#ffffff;fill-opacity:1;fill-rule:nonzero;stroke:none"
         d="m 2814.33,257.883 c 0,-20.317 -15.3,-33.125 -34.68,-38.746 -17.17,-5.004 -44.05,-5.004 -61.24,-0.305 -20.3,5.313 -36.24,18.106 -36.55,39.051 v 139.972 0.309 c 0.31,22.813 19.38,36.246 42.18,40.625 17.19,3.117 42.18,2.809 58.44,-2.824 18.42,-5.934 31.85,-18.742 31.85,-38.11 l -15.61,0.309 c 0,11.258 -9.07,19.059 -20.94,23.117 -14.37,5.008 -35.93,5.008 -50.93,2.184 -15.92,-3.117 -29.37,-11.559 -29.37,-25.61 V 257.883 c 0,-12.504 10.94,-20.625 25,-24.063 14.69,-4.062 38.43,-3.75 52.8,0.309 13.44,3.758 23.44,11.566 23.44,23.754 v 54.359 h -43.13 v 14.375 h 58.74 v -68.734" /><path
         id="path36"
         style="fill:#ffffff;fill-opacity:1;fill-rule:nonzero;stroke:none"
         d="m 2892.79,335.984 h 100.61 v -15.921 h -100.61 c 0,-10.008 -0.93,-59.684 1.25,-65.93 5,-14.688 26.88,-19.688 41.56,-19.688 h 57.8 v -15.937 h -57.8 v 0.32 c -26.55,-0.32 -58.43,12.18 -58.43,41.867 v 176.836 h 116.23 v -15.617 h -100.61 v -85.93" /><path
         id="path38"
         style="fill:#ffffff;fill-opacity:1;fill-rule:nonzero;stroke:none"
         d="M 0,606.773 V 560.145 H 58.4766 V 46.6289 L 0,46.6289 V 0 H 123.219 V 606.773 H 0" /><path
         id="path40"
         style="fill:#ffffff;fill-opacity:1;fill-rule:nonzero;stroke:none"
         d="M 624.945,606.773 V 0 H 750.258 V 46.6289 H 689.691 V 560.145 h 60.567 v 46.628 H 624.945" /><path
         id="path42"
         style="fill:#ffffff;fill-opacity:1;fill-rule:nonzero;stroke:none"
         d="m 772.957,214.805 v 219.023 h 75.926 c 25.308,0 56.863,-12.816 56.863,-42.176 V 257.305 c 0,-30 -32.176,-42.5 -59.058,-42.5 z m 116.852,176.847 c 0,18.743 -24.989,26.551 -41.246,26.551 h -1.235 -0.32 -58.117 V 230.742 h 57.797 c 14.687,0 36.875,4.992 41.871,19.996 2.183,6.246 1.25,114.352 1.25,140.914" /><path
         id="path44"
         style="fill:#73c82c;fill-opacity:1;fill-rule:nonzero;stroke:none"
         d="m 2455.83,70.7383 c 0,-8.9766 -6.77,-14.6406 -15.33,-17.1289 -7.6,-2.2071 -19.47,-2.2071 -27.07,-0.1367 -8.98,2.3515 -16.02,8.0078 -16.15,17.2656 v 61.8637 0.136 c 0.13,10.078 8.56,16.016 18.64,17.95 7.6,1.386 18.64,1.242 25.82,-1.239 8.15,-2.629 14.09,-8.293 14.09,-16.847 l -6.9,0.136 c 0,4.973 -4.01,8.418 -9.26,10.215 -6.35,2.219 -15.88,2.219 -22.51,0.969 -7.04,-1.379 -12.98,-5.109 -12.98,-11.32 V 70.7383 c 0,-5.5274 4.84,-9.1211 11.05,-10.6367 6.49,-1.7969 16.99,-1.6602 23.34,0.1367 5.93,1.6601 10.36,5.1094 10.36,10.5 v 24.0234 h -19.07 v 6.3553 h 25.97 V 70.7383" /><path
         id="path46"
         style="fill:#73c82c;fill-opacity:1;fill-rule:nonzero;stroke:none"
         d="m 2521.45,71.7031 0.13,60.8989 c 0,16.289 -44.46,16.289 -44.46,0 l 0.14,-60.8989 c 0,-1.7968 0.13,-3.0351 0.42,-3.5937 4.14,-12.0117 39.22,-12.0117 43.36,0 0.27,0.5586 0.41,1.7969 0.41,3.5937 z m -51.23,60.8989 c 0,24.718 58.28,24.718 58.28,0 V 71.0117 c 0,-25.1367 -58.28,-25.1367 -58.28,0 v 61.5903" /><path
         id="path48"
         style="fill:#73c82c;fill-opacity:1;fill-rule:nonzero;stroke:none"
         d="m 2568.46,47.8086 38.52,100.1174 h 9.4 L 2577.71,47.8086 h -9.25" /><path
         id="path50"
         style="fill:#73c82c;fill-opacity:1;fill-rule:nonzero;stroke:none"
         d="m 2714.32,71.5664 c 0,-9.1211 -6.63,-14.7734 -15.33,-17.2656 -7.47,-2.0703 -19.75,-2.0703 -27.07,-0.1367 -8.98,2.3437 -16.02,8.1445 -16.16,17.2578 v 60.6251 c 0.14,10.078 8.57,16.016 18.65,17.949 7.59,1.387 18.64,1.25 25.82,-1.105 8.15,-2.754 14.09,-8.282 14.09,-16.844 h -6.91 c 0,5.105 -4,8.562 -9.25,10.359 -6.35,2.071 -15.88,2.071 -22.51,0.832 -7.04,-1.386 -12.98,-5.117 -12.98,-11.191 V 71.4219 c 0,-5.3828 4.83,-8.9766 11.04,-10.625 6.5,-1.6602 16.85,-1.6602 23.34,0.1367 5.94,1.6484 10.36,5.2422 10.36,10.4883 l 6.91,0.1445" /><path
         id="path52"
         style="fill:#73c82c;fill-opacity:1;fill-rule:nonzero;stroke:none"
         d="m 2778.41,71.7031 0.14,60.8989 c 0,16.289 -44.47,16.289 -44.47,0 l 0.14,-60.8989 c 0,-1.7968 0.14,-3.0351 0.42,-3.5937 4.14,-12.0117 39.22,-12.0117 43.36,0 0.27,0.5586 0.41,1.7969 0.41,3.5937 z m -51.23,60.8989 c 0,24.718 58.28,24.718 58.28,0 V 71.0117 c 0,-25.1367 -58.28,-25.1367 -58.28,0 v 61.5903" /><path
         id="path54"
         style="fill:#73c82c;fill-opacity:1;fill-rule:nonzero;stroke:none"
         d="m 2851.22,131.5 c 0,8.281 -11.05,11.738 -18.23,11.738 h -0.55 -0.14 -25.69 V 60.375 h 25.55 c 6.49,0 16.3,2.207 18.51,8.8398 0.96,2.7618 0.55,50.5472 0.55,62.2852 z m -51.65,-78.1641 c 0,32.4493 0,64.4921 0,96.8051 h 33.56 c 11.19,0 25.13,-5.664 25.13,-18.641 V 72.1133 c 0,-13.25 -14.23,-18.7774 -26.1,-18.7774 h -32.59" /><path
         id="path56"
         style="fill:#73c82c;fill-opacity:1;fill-rule:nonzero;stroke:none"
         d="m 2879.56,105.258 h 44.46 v -7.0392 h -44.46 c 0,-4.4258 -0.41,-26.379 0.56,-29.1407 2.21,-6.4961 11.87,-8.7031 18.36,-8.7031 h 25.54 v -7.0391 h -25.54 v 0.1368 c -11.74,-0.1368 -25.82,5.3906 -25.82,18.5039 v 78.1644 c 17.12,0 34.25,0 51.36,0 v -6.903 h -44.46 v -37.98" /><g
         transform="scale(10)"
         id="g58" /><g
         transform="scale(10)"
         id="g60"><text
           id="text64"
           style="font-variant:normal;font-weight:normal;font-size:11.59140015px;font-family:MyriadPro;-inkscape-font-specification:MyriadPro-Regular;writing-mode:lr-tb;fill:#ffffff;fill-opacity:1;fill-rule:nonzero;stroke:none"
           transform="matrix(1,0,0,-1,297.984,7.37773)"><tspan
             id="tspan62"
             y="0"
             x="0">|</tspan></text>
</g><path
         id="path66"
         style="fill:#ffffff;fill-opacity:1;fill-rule:nonzero;stroke:none"
         d="M 585.762,492.465 H 162.406 v 57.613 h 423.356 v -57.613" /><path
         id="path68"
         style="fill:#ffffff;fill-opacity:1;fill-rule:nonzero;stroke:none"
         d="M 578.762,606.773 H 169.406 c -3.871,0 -6.996,-3.136 -6.996,-6.996 v -0.972 -13.84 -7.004 h 6.996 409.356 6.996 v 7.004 13.84 0.972 c 0,3.86 -3.133,6.996 -6.996,6.996" /><path
         id="path70"
         style="fill:#ffffff;fill-opacity:1;fill-rule:nonzero;stroke:none"
         d="M 585.762,407.238 H 162.406 v 57.614 h 423.356 v -57.614" /><path
         id="path72"
         style="fill:#ffffff;fill-opacity:1;fill-rule:nonzero;stroke:none"
         d="M 585.762,317.031 H 162.406 v 57.614 h 423.356 v -57.614" /><path
         id="path74"
         style="fill:#73c82c;fill-opacity:1;fill-rule:nonzero;stroke:none"
         d="M 585.762,221.086 H 162.406 v 57.613 h 423.356 v -57.613" /></g></g></svg>